<?xml version="1.0" encoding="UTF-8"?>
<svg id="Layer_1" xmlns="http://www.w3.org/2000/svg" version="1.1" viewBox="0 0 288 288">
  <!-- Generator: Adobe Illustrator 30.3.0, SVG Export Plug-In . SVG Version: 2.1.3 Build 182)  -->
  <defs>
    <style>
      .st0 {
        fill: #da552f;
      }
    </style>
  </defs>
  <path class="st0" d="M155.27,86.55c2.92.93,5.69,2.17,8.29,3.69-1.09,8.32-4.38,16.64-5.41,19.09h0c-4.98,3.43-8.54,7.15-11.09,10.59,1.07-11.71,3.49-23.52,8.21-33.37Z"/>
  <path class="st0" d="M175.72,101.08c-3.09.94-5.91,2.01-8.48,3.16.89-2.82,1.81-6.11,2.47-9.57,2.22,1.92,4.24,4.06,6.01,6.41Z"/>
  <path class="st0" d="M181.64,139.95c-5.11,14.27-17.83,24.91-33.28,27.03-.82-6.29-1.84-16.32-2-27.71h0c.1-1.33.71-6.47,4.28-12.46,4.28.05,18.76,1.14,30.86,13.02.04.04.09.09.14.12Z"/>
  <path class="st0" d="M184.06,125.98c0,2.22-.17,4.41-.51,6.53-10.18-8.71-21.15-11.4-27.96-12.18,4.9-5.12,12.41-10.12,23.88-13.29,2.94,5.67,4.59,12.11,4.59,18.94Z"/>
  <path class="st0" d="M124.74,97.16c-2.47-1.2-5.22-2.29-8.26-3.23,2.54-2.08,5.34-3.87,8.33-5.29-.5,3.26-.42,6.12-.07,8.52Z"/>
  <path class="st0" d="M139.52,133.39c-1.43-1.57-5.46-5.36-13.52-8.85h-.06c-.21,0-12.12.31-23.76,10.08,3.9,18.37,19.96,32.22,39.36,32.74-1-7.64-2.24-20.09-2.02-33.97ZM110.92,99.42c-3.05,3.64-5.48,7.82-7.14,12.36,18.98,2.47,30.11,8.36,36.07,12.85.04-.71.09-1.41.15-2.12-.82-2.93-5.99-17.41-29.07-23.09ZM142.66,84.59c-3.55,0-7,.45-10.3,1.29h0c-3.08,10.33,1.03,16.12,1.09,16.19.18.24.32.49.42.76,3.2,2.55,5.64,5.21,7.47,7.71,1.36-8.92,3.62-17.69,7.17-25.53-1.91-.27-3.86-.41-5.85-.41Z"/>
  <path class="st0" d="M113.35,120.41c-3.65,1.33-7.81,3.33-12.06,6.34-.02-.26-.02-.51-.02-.77,0-2.59.24-5.13.71-7.59,4.2.52,7.98,1.21,11.37,2.02Z"/>
</svg>