<?xml version="1.0" encoding="UTF-8"?>
<svg id="Layer_1" xmlns="http://www.w3.org/2000/svg" version="1.1" viewBox="88 328 420 128">
  <!-- Generator: Adobe Illustrator 30.3.0, SVG Export Plug-In . SVG Version: 2.1.3 Build 182)  -->
  <defs>
    <style>
      .st0 {
        fill: #da562f;
      }
    </style>
  </defs>
  <g>
    <path class="st0" d="M182.97,335.84c4.49,1.43,8.76,3.34,12.76,5.69-1.68,12.81-6.74,25.62-8.32,29.38h-.01c-7.66,5.28-13.15,11-17.07,16.3,1.64-18.02,5.37-36.21,12.64-51.37Z"/>
    <path class="st0" d="M214.46,358.2c-4.76,1.44-9.09,3.09-13.05,4.86,1.38-4.34,2.78-9.41,3.8-14.74,3.42,2.96,6.52,6.26,9.25,9.87Z"/>
    <path class="st0" d="M223.57,418.04c-7.86,21.97-27.45,38.35-51.23,41.61-1.26-9.69-2.84-25.12-3.08-42.66h0c.16-2.06,1.1-9.97,6.59-19.18,6.59.08,28.88,1.75,47.51,20.04.07.07.13.13.21.19Z"/>
    <path class="st0" d="M227.29,396.54c0,3.42-.26,6.79-.78,10.06-15.68-13.41-32.56-17.54-43.04-18.75,7.54-7.88,19.1-15.57,36.76-20.46,4.52,8.73,7.06,18.65,7.06,29.15Z"/>
    <path class="st0" d="M135.98,352.17c-3.8-1.84-8.03-3.52-12.72-4.97,3.91-3.21,8.22-5.95,12.83-8.15-.77,5.02-.65,9.42-.11,13.12Z"/>
    <path class="st0" d="M158.74,407.94c-2.2-2.41-8.4-8.24-20.81-13.62h-.09c-.32,0-18.66.48-36.58,15.52,6,28.28,30.73,49.61,60.59,50.4-1.54-11.75-3.45-30.92-3.11-52.29ZM114.71,355.65c-4.69,5.61-8.44,12.03-11,19.03,29.22,3.8,46.34,12.87,55.53,19.77.07-1.09.13-2.17.23-3.26-1.26-4.51-9.22-26.8-44.76-35.54ZM163.57,332.82c-5.47,0-10.77.69-15.85,1.99h-.01c-4.74,15.9,1.59,24.81,1.67,24.92.28.37.49.75.65,1.17,4.93,3.92,8.68,8.02,11.5,11.86,2.09-13.73,5.58-27.23,11.04-39.3-2.94-.41-5.94-.63-9-.63Z"/>
    <path class="st0" d="M118.45,387.95c-5.62,2.05-12.02,5.13-18.57,9.77-.03-.4-.03-.78-.03-1.18,0-3.99.37-7.9,1.09-11.69,6.47.8,12.28,1.86,17.51,3.1Z"/>
  </g>
  <g>
    <path class="st0" d="M240.18,338.7v-5.13h22.3v5.13h-22.3ZM248.39,359.82v-25.91h5.91v25.91h-5.91Z"/>
    <path class="st0" d="M264.6,359.82v-26.25h5.87v26.25h-5.87ZM268.13,348.89v-5.09h14.65v5.09h-14.65ZM280.84,359.82v-26.25h5.91v26.25h-5.91Z"/>
    <path class="st0" d="M290.62,359.82v-26.25h5.87v26.25h-5.87ZM295.12,338.63v-5.06h14.2v5.06h-14.2ZM295.12,348.89v-4.94h13.09v4.94h-13.09ZM295.12,359.82v-5.06h14.42v5.06h-14.42Z"/>
    <path class="st0" d="M241.96,404.43v-26.25h5.87v26.25h-5.87Z"/>
    <path class="st0" d="M251.74,404.43v-26.25h4.13l1.75,5.24v21h-5.87ZM269.84,404.43l-15.43-19.81,1.45-6.43,15.46,19.81-1.49,6.43ZM269.84,404.43l-1.56-5.24v-21h5.91v26.25h-4.35Z"/>
    <path class="st0" d="M276.27,383.31v-5.13h22.3v5.13h-22.3ZM284.49,404.43v-25.91h5.91v25.91h-5.91Z"/>
    <path class="st0" d="M300.69,404.43v-26.25h5.87v26.25h-5.87ZM305.19,383.24v-5.06h14.2v5.06h-14.2ZM305.19,393.5v-4.94h13.09v4.94h-13.09ZM305.19,404.43v-5.06h14.42v5.06h-14.42Z"/>
    <path class="st0" d="M322.44,404.43v-26.25h5.87v26.25h-5.87ZM326.98,404.43v-5.13h12.97v5.13h-12.97Z"/>
    <path class="st0" d="M342.18,404.43v-26.25h5.87v26.25h-5.87ZM346.72,404.43v-5.13h12.97v5.13h-12.97Z"/>
    <path class="st0" d="M361.92,404.43v-26.25h5.87v26.25h-5.87ZM366.42,383.24v-5.06h14.2v5.06h-14.2ZM366.42,393.5v-4.94h13.08v4.94h-13.08ZM366.42,404.43v-5.06h14.42v5.06h-14.42Z"/>
    <path class="st0" d="M395.64,404.84c-1.96,0-3.77-.34-5.45-1.02s-3.14-1.64-4.39-2.88c-1.25-1.24-2.22-2.68-2.92-4.33-.69-1.65-1.04-3.43-1.04-5.33s.35-3.69,1.04-5.33c.69-1.65,1.67-3.08,2.92-4.29,1.25-1.21,2.71-2.16,4.37-2.84,1.66-.68,3.48-1.02,5.46-1.02,2.08,0,3.93.33,5.56,1,1.62.67,3.04,1.59,4.26,2.75l-3.94,3.98c-.67-.74-1.49-1.33-2.47-1.75-.98-.42-2.11-.63-3.4-.63-1.14,0-2.18.19-3.12.58-.94.38-1.76.94-2.45,1.65-.69.72-1.23,1.59-1.6,2.6s-.56,2.12-.56,3.31.19,2.36.56,3.36c.37,1,.9,1.87,1.6,2.6.69.73,1.51,1.29,2.45,1.67.94.38,1.98.58,3.12.58,1.34,0,2.5-.2,3.49-.61s1.83-1,2.53-1.77l3.98,3.98c-1.24,1.19-2.68,2.11-4.31,2.77s-3.53.99-5.69.99Z"/>
    <path class="st0" d="M405.49,383.31v-5.13h22.31v5.13h-22.31ZM413.71,404.43v-25.91h5.91v25.91h-5.91Z"/>
    <path class="st0" d="M440.4,404.84c-2.18,0-4.1-.46-5.74-1.39-1.65-.93-2.94-2.21-3.87-3.83-.93-1.62-1.39-3.46-1.39-5.52v-15.91h5.87v16.21c0,1.07.23,1.98.69,2.75.46.77,1.07,1.35,1.84,1.75.77.4,1.64.59,2.6.59s1.79-.2,2.55-.59,1.34-.98,1.77-1.75c.42-.77.63-1.67.63-2.71v-16.25h5.91v15.95c0,2.06-.46,3.89-1.38,5.5-.92,1.61-2.19,2.88-3.83,3.81-1.64.93-3.52,1.39-5.65,1.39Z"/>
    <path class="st0" d="M451.81,404.43l10.37-26.25h5.32l10.3,26.25h-6.21l-7.84-21.75h2.16l-8.03,21.75h-6.06ZM457.76,399.71v-4.76h14.28v4.76h-14.28Z"/>
    <path class="st0" d="M479.43,404.43v-26.25h5.87v26.25h-5.87ZM483.97,404.43v-5.13h12.97v5.13h-12.97Z"/>
    <path class="st0" d="M241.96,449.04v-26.25h5.87v26.25h-5.87ZM246.46,427.85v-5.06h14.2v5.06h-14.2ZM246.46,438.11v-4.94h13.09v4.94h-13.09ZM246.46,449.04v-5.06h14.42v5.06h-14.42Z"/>
    <path class="st0" d="M261.74,449.04l9.7-14.05,4.54,2.53-7.51,11.52h-6.73ZM280.36,449.04l-7.29-11.67h-.74l-10.11-14.57h6.99l7.21,11h.71l10.11,15.24h-6.88ZM277.35,436.66l-4.5-2.53,7.25-11.34h6.69l-9.44,13.87Z"/>
    <path class="st0" d="M300.36,449.45c-1.96,0-3.77-.34-5.45-1.02s-3.14-1.64-4.39-2.88-2.22-2.68-2.92-4.33c-.69-1.65-1.04-3.43-1.04-5.33s.35-3.69,1.04-5.33c.69-1.65,1.67-3.08,2.92-4.29,1.25-1.21,2.71-2.16,4.37-2.84,1.66-.68,3.48-1.02,5.46-1.02,2.08,0,3.93.33,5.56,1,1.62.67,3.04,1.59,4.26,2.75l-3.94,3.98c-.67-.74-1.49-1.33-2.47-1.75-.98-.42-2.11-.63-3.4-.63-1.14,0-2.18.19-3.12.58-.94.38-1.76.94-2.45,1.65-.69.72-1.23,1.59-1.6,2.6-.37,1.02-.56,2.12-.56,3.31s.19,2.36.56,3.36.9,1.87,1.6,2.6c.69.73,1.51,1.29,2.45,1.67.94.38,1.98.58,3.12.58,1.34,0,2.5-.2,3.49-.61.99-.41,1.83-1,2.53-1.77l3.98,3.98c-1.24,1.19-2.68,2.11-4.31,2.77-1.64.66-3.53.99-5.69.99Z"/>
    <path class="st0" d="M312.41,449.04v-26.25h5.87v26.25h-5.87ZM315.94,438.11v-5.09h14.65v5.09h-14.65ZM328.65,449.04v-26.25h5.91v26.25h-5.91Z"/>
    <path class="st0" d="M336.5,449.04l10.37-26.25h5.32l10.3,26.25h-6.21l-7.84-21.75h2.16l-8.03,21.75h-6.06ZM342.44,444.32v-4.76h14.28v4.76h-14.28Z"/>
    <path class="st0" d="M364.12,449.04v-26.25h4.13l1.75,5.24v21h-5.87ZM382.22,449.04l-15.43-19.81,1.45-6.43,15.46,19.81-1.49,6.43ZM382.22,449.04l-1.56-5.24v-21h5.91v26.25h-4.35Z"/>
    <path class="st0" d="M402.85,449.48c-1.93,0-3.74-.35-5.41-1.06s-3.13-1.68-4.37-2.92-2.21-2.68-2.92-4.31-1.06-3.41-1.06-5.32.36-3.71,1.08-5.33,1.72-3.05,3.01-4.28c1.29-1.23,2.78-2.19,4.48-2.88,1.7-.69,3.52-1.04,5.48-1.04,2.25,0,4.31.42,6.17,1.25,1.86.83,3.39,1.96,4.61,3.4l-4.01,4.01c-.82-1.09-1.8-1.91-2.96-2.47s-2.43-.84-3.85-.84c-1.54,0-2.91.34-4.13,1.02-1.21.68-2.16,1.64-2.84,2.86-.68,1.23-1.02,2.66-1.02,4.29s.33,3.04,1,4.28,1.59,2.21,2.75,2.92c1.16.71,2.5,1.06,4.01,1.06s2.81-.29,3.88-.87,1.91-1.43,2.49-2.55c.58-1.12.87-2.45.87-4.01l3.9,2.6-11.71-.19v-4.94h13.79v.86c0,3.12-.56,5.76-1.69,7.92-1.13,2.16-2.69,3.79-4.68,4.89s-4.29,1.65-6.9,1.65Z"/>
    <path class="st0" d="M418.5,449.04v-26.25h5.87v26.25h-5.87ZM423,427.85v-5.06h14.2v5.06h-14.2ZM423,438.11v-4.94h13.08v4.94h-13.08ZM423,449.04v-5.06h14.42v5.06h-14.42Z"/>
  </g>
</svg>